<?xml version="1.0" standalone="no"?>
<!DOCTYPE svg PUBLIC "-//W3C//DTD SVG 20010904//EN"
 "http://www.w3.org/TR/2001/REC-SVG-20010904/DTD/svg10.dtd">
<svg version="1.0" xmlns="http://www.w3.org/2000/svg"
 width="512.000000pt" height="512.000000pt" viewBox="0 0 512.000000 512.000000"
 preserveAspectRatio="xMidYMid meet">

<g transform="translate(0.000000,512.000000) scale(0.100000,-0.100000)"
fill="#000000" stroke="none">
<path d="M2863 5101 c-38 -24 -53 -50 -100 -180 -49 -133 -69 -196 -108 -345
-19 -73 -42 -138 -53 -150 -54 -58 -101 -205 -102 -313 0 -43 -7 -63 -35 -108
-20 -30 -43 -55 -51 -55 -9 0 -56 -13 -105 -30 l-90 -30 -82 71 c-272 236
-451 294 -573 186 -41 -35 -76 -100 -95 -177 -21 -83 -19 -430 4 -597 l18
-133 -34 -72 c-45 -94 -91 -233 -113 -339 -15 -69 -18 -144 -20 -414 -2 -348
-12 -454 -62 -625 -11 -36 -36 -120 -56 -188 -67 -230 -81 -333 -81 -624 l0
-257 -30 23 c-16 13 -43 45 -60 71 l-30 48 -6 201 c-5 176 -8 208 -28 259 -31
79 -109 157 -188 188 -175 67 -376 -17 -444 -188 -23 -55 -24 -69 -23 -278 0
-244 13 -321 74 -469 98 -234 321 -440 568 -525 160 -55 121 -53 1732 -49
l1485 5 65 22 c89 31 140 63 195 122 69 74 90 126 90 229 0 108 -29 177 -109
253 l-54 53 10 89 c6 50 8 176 5 280 -6 226 -25 345 -96 596 -83 297 -86 322
-86 734 -1 398 -3 420 -70 622 -34 101 -99 242 -138 296 -19 28 -19 33 -6 150
19 177 17 414 -4 507 -22 96 -66 172 -119 207 -36 24 -51 28 -117 28 -67 0
-85 -4 -151 -36 -88 -43 -190 -114 -277 -193 l-62 -57 -56 16 -55 16 0 52 c0
29 -7 84 -15 122 -13 57 -13 83 -4 139 12 73 7 143 -16 216 -8 26 -16 114 -19
210 -5 165 -25 332 -44 366 -36 66 -120 92 -179 55z m18 -564 c-6 -15 -17 -27
-24 -27 -11 0 -10 15 7 76 l21 76 3 -49 c2 -27 -2 -61 -7 -76z m45 -174 c4
-22 1 -59 -7 -93 -13 -52 -16 -56 -69 -82 -30 -15 -77 -36 -104 -47 l-48 -21
7 48 c9 64 26 101 66 147 28 31 112 82 141 84 4 1 10 -16 14 -36z m10 -319 c6
-35 0 -128 -12 -158 -3 -8 -29 -24 -57 -35 -206 -80 -262 -101 -270 -101 -25
0 36 163 81 216 17 20 213 113 239 114 7 0 15 -16 19 -36z m-1150 -75 c72 -37
149 -96 277 -211 110 -100 121 -103 215 -64 106 44 102 45 102 -16 0 -76 16
-124 58 -170 73 -81 210 -128 373 -128 108 0 172 16 240 59 58 36 85 89 100
196 6 44 12 81 14 83 2 2 25 -4 52 -14 30 -11 59 -15 76 -10 15 3 64 41 110
83 125 116 286 223 335 223 49 0 67 -279 37 -552 l-17 -155 55 -91 c149 -247
198 -463 180 -797 -15 -307 10 -529 93 -806 80 -272 112 -548 88 -778 l-7 -61
-59 0 c-52 0 -63 -3 -89 -29 -22 -23 -29 -39 -29 -70 0 -64 30 -90 121 -106
89 -15 146 -42 183 -85 52 -62 47 -129 -14 -190 -70 -70 -66 -70 -753 -70
-576 0 -609 1 -602 18 31 76 37 109 33 175 -11 162 -135 294 -323 342 -119 30
-183 16 -210 -49 -31 -74 9 -122 117 -141 91 -16 148 -44 183 -89 59 -77 33
-164 -65 -220 l-55 -31 -562 -3 -562 -3 -20 47 c-82 184 -140 489 -141 737 0
218 27 386 105 642 85 278 110 477 100 795 -10 303 18 453 127 679 l50 103
-16 102 c-47 298 -49 551 -5 659 15 35 33 34 105 -4z m1164 -271 c0 -83 -7
-96 -54 -109 -66 -18 -266 5 -266 31 0 6 295 128 313 129 4 1 7 -23 7 -51z
m-2221 -2387 c46 -32 62 -64 64 -126 l2 -60 -134 -3 c-76 -1 -139 2 -144 7 -5
5 -7 33 -2 66 14 118 127 178 214 116z m71 -373 c0 -35 3 -73 6 -85 l6 -23
-146 0 -146 0 0 33 c0 17 -3 56 -6 85 l-7 52 147 0 146 0 0 -62z m105 -284
c57 -67 149 -129 221 -150 48 -14 52 -18 59 -52 6 -31 55 -196 73 -241 4 -11
-7 -12 -62 -6 -191 20 -363 106 -488 244 -56 62 -132 186 -143 234 l-7 27 149
0 149 0 49 -56z"/>
<path d="M2707 2976 c-8 -8 -17 -34 -21 -57 -11 -70 -68 -129 -125 -129 -11 0
-32 -5 -46 -12 -45 -20 -45 -91 0 -108 14 -5 26 -20 30 -39 19 -86 110 -155
205 -155 95 0 186 69 205 155 4 19 16 34 31 39 25 10 40 47 30 78 -7 21 -45
42 -77 42 -57 0 -114 59 -125 129 -8 51 -26 71 -64 71 -16 0 -35 -6 -43 -14z
m91 -255 c23 -21 42 -43 42 -49 0 -6 -12 -24 -26 -41 -20 -25 -34 -31 -64 -31
-30 0 -44 6 -64 31 -14 17 -26 35 -26 41 0 10 80 87 90 87 3 0 24 -17 48 -38z"/>
<path d="M2074 2930 c-11 -4 -33 -22 -47 -40 -51 -60 -30 -147 43 -185 62 -32
132 -5 162 61 45 104 -53 207 -158 164z"/>
<path d="M3309 2917 c-64 -43 -72 -133 -16 -185 77 -72 191 -34 204 68 15 108
-98 178 -188 117z"/>
<path d="M3712 1684 c-26 -18 -28 -44 -6 -108 25 -74 16 -173 -20 -221 -51
-67 -118 -81 -201 -41 -55 26 -88 58 -129 124 -21 33 -32 42 -55 42 -34 0 -61
-27 -61 -62 0 -30 45 -100 97 -150 92 -89 230 -121 331 -78 67 29 135 103 158
172 42 128 -4 338 -74 338 -10 0 -28 -7 -40 -16z"/>
<path d="M2442 1584 c-24 -16 -29 -53 -12 -84 40 -74 29 -198 -22 -256 -80
-91 -219 -58 -305 73 -30 45 -45 59 -67 61 -32 4 -66 -22 -66 -50 0 -62 106
-183 198 -226 76 -36 186 -38 248 -5 145 77 198 252 132 431 -26 70 -60 88
-106 56z"/>
</g>
</svg>
